<?xml version="1.0" encoding="UTF-8"?>
<!DOCTYPE svg PUBLIC "-//W3C//DTD SVG 1.1//EN" "http://www.w3.org/Graphics/SVG/1.1/DTD/svg11.dtd">
<svg xmlns="http://www.w3.org/2000/svg" version="1.1" width="375px" height="375px" style="shape-rendering:geometricPrecision; text-rendering:geometricPrecision; image-rendering:optimizeQuality; fill-rule:evenodd; clip-rule:evenodd" xmlns:xlink="http://www.w3.org/1999/xlink">
<g><path style="opacity:1" fill="#0a131e" d="M -0.5,-0.5 C 124.5,-0.5 249.5,-0.5 374.5,-0.5C 374.5,124.5 374.5,249.5 374.5,374.5C 249.5,374.5 124.5,374.5 -0.5,374.5C -0.5,249.5 -0.5,124.5 -0.5,-0.5 Z"/></g>
<g><path style="opacity:1" fill="#e19306" d="M 271.5,156.5 C 271.167,157.167 270.833,157.833 270.5,158.5C 258.678,159.916 246.678,160.916 234.5,161.5C 233.167,160.833 231.833,160.167 230.5,159.5C 235.6,158.745 240.266,156.912 244.5,154C 236.743,150.914 228.743,148.747 220.5,147.5C 220.294,151.898 220.627,156.232 221.5,160.5C 219.5,160.5 217.5,160.5 215.5,160.5C 216.167,155.833 216.833,151.167 217.5,146.5C 194.901,142.697 174.901,148.03 157.5,162.5C 156.5,162.5 155.5,162.5 154.5,162.5C 167.949,149.705 184.115,143.039 203,142.5C 208.867,142.616 214.7,143.116 220.5,144C 237.336,148.891 254.336,153.058 271.5,156.5 Z"/></g>
<g><path style="opacity:1" fill="#0d141d" d="M 215.5,160.5 C 215.5,160.833 215.5,161.167 215.5,161.5C 209.5,161.5 203.5,161.5 197.5,161.5C 189.5,161.5 181.5,161.5 173.5,161.5C 173.5,160.167 173.5,158.833 173.5,157.5C 171.473,157.338 169.473,157.505 167.5,158C 166.944,158.383 166.611,158.883 166.5,159.5C 165.596,160.209 165.263,161.209 165.5,162.5C 162.833,162.5 160.167,162.5 157.5,162.5C 174.901,148.03 194.901,142.697 217.5,146.5C 216.833,151.167 216.167,155.833 215.5,160.5 Z"/></g>
<g><path style="opacity:1" fill="#10151d" d="M 230.5,159.5 C 227.57,160.299 224.57,160.632 221.5,160.5C 220.627,156.232 220.294,151.898 220.5,147.5C 228.743,148.747 236.743,150.914 244.5,154C 240.266,156.912 235.6,158.745 230.5,159.5 Z"/></g>
<g><path style="opacity:1" fill="#eb9904" d="M 287.5,159.5 C 284.311,159.858 281.311,160.525 278.5,161.5C 263.179,162.488 247.846,163.321 232.5,164C 196.167,164.333 159.833,164.667 123.5,165C 110.967,164.465 99.6337,167.632 89.5,174.5C 88.5084,174.672 87.8417,174.338 87.5,173.5C 94.8965,168.087 103.23,164.92 112.5,164C 126.459,162.634 140.459,162.134 154.5,162.5C 155.5,162.5 156.5,162.5 157.5,162.5C 160.167,162.5 162.833,162.5 165.5,162.5C 176.346,162.828 187.013,162.494 197.5,161.5C 203.5,161.5 209.5,161.5 215.5,161.5C 221.833,161.5 228.167,161.5 234.5,161.5C 246.678,160.916 258.678,159.916 270.5,158.5C 273.059,158.802 275.393,158.468 277.5,157.5C 281.616,157.459 285.616,156.793 289.5,155.5C 289.771,157.38 289.104,158.713 287.5,159.5 Z"/></g>
<g><path style="opacity:1" fill="#f7a001" d="M 173.5,161.5 C 170.612,162.01 168.279,161.344 166.5,159.5C 166.611,158.883 166.944,158.383 167.5,158C 169.473,157.505 171.473,157.338 173.5,157.5C 173.5,158.833 173.5,160.167 173.5,161.5 Z"/></g>
<g><path style="opacity:1" fill="#765312" d="M 271.5,156.5 C 273.735,156.205 275.735,156.539 277.5,157.5C 275.393,158.468 273.059,158.802 270.5,158.5C 270.833,157.833 271.167,157.167 271.5,156.5 Z"/></g>
<g><path style="opacity:1" fill="#684b14" d="M 230.5,159.5 C 231.833,160.167 233.167,160.833 234.5,161.5C 228.167,161.5 221.833,161.5 215.5,161.5C 215.5,161.167 215.5,160.833 215.5,160.5C 217.5,160.5 219.5,160.5 221.5,160.5C 224.57,160.632 227.57,160.299 230.5,159.5 Z"/></g>
<g><path style="opacity:1" fill="#493719" d="M 287.5,159.5 C 288.625,160.652 288.625,161.652 287.5,162.5C 284.974,161.343 282.307,161.343 279.5,162.5C 279.5,161.833 279.167,161.5 278.5,161.5C 281.311,160.525 284.311,159.858 287.5,159.5 Z"/></g>
<g><path style="opacity:1" fill="#6f4f13" d="M 166.5,159.5 C 168.279,161.344 170.612,162.01 173.5,161.5C 181.5,161.5 189.5,161.5 197.5,161.5C 187.013,162.494 176.346,162.828 165.5,162.5C 165.263,161.209 165.596,160.209 166.5,159.5 Z"/></g>
<g><path style="opacity:1" fill="#d68c08" d="M 287.5,162.5 C 286.5,166.5 285.5,170.5 284.5,174.5C 284.167,174.5 283.833,174.5 283.5,174.5C 283.67,172.152 284.003,169.818 284.5,167.5C 284.167,166.5 283.833,165.5 283.5,164.5C 281.556,163.811 279.556,163.311 277.5,163C 278.094,162.536 278.761,162.369 279.5,162.5C 282.307,161.343 284.974,161.343 287.5,162.5 Z"/></g>
<g><path style="opacity:1" fill="#c7840a" d="M 241.5,174.5 C 240.542,174.953 239.708,175.619 239,176.5C 241.597,170.413 246.43,167.08 253.5,166.5C 261.511,166.889 267.011,170.556 270,177.5C 263.387,169.804 255.221,167.637 245.5,171C 243.907,171.949 242.574,173.115 241.5,174.5 Z"/></g>
<g><path style="opacity:1" fill="#de9208" d="M 132.5,175.5 C 131.609,174.89 130.609,174.557 129.5,174.5C 126.517,171.614 122.851,170.28 118.5,170.5C 114.115,170.693 110.115,172.027 106.5,174.5C 106.167,174.5 105.833,174.5 105.5,174.5C 110.525,168.8 116.858,166.967 124.5,169C 127.981,170.328 130.648,172.495 132.5,175.5 Z"/></g>
<g><path style="opacity:1" fill="#9a9690" d="M 87.5,173.5 C 87.8417,174.338 88.5084,174.672 89.5,174.5C 94.5,174.5 99.5,174.5 104.5,174.5C 98.021,175.491 91.3543,175.824 84.5,175.5C 85.2905,174.599 86.2905,173.932 87.5,173.5 Z"/></g>
<g><path style="opacity:1" fill="#f1f1f1" d="M 104.5,174.5 C 104.833,174.5 105.167,174.5 105.5,174.5C 105.833,174.5 106.167,174.5 106.5,174.5C 107.209,175.404 108.209,175.737 109.5,175.5C 109.5,176.5 109.5,177.5 109.5,178.5C 106.833,178.5 104.167,178.5 101.5,178.5C 99.6733,187.473 98.0066,196.473 96.5,205.5C 92.8333,205.5 89.1667,205.5 85.5,205.5C 87.0386,196.474 88.7053,187.474 90.5,178.5C 88.1667,178.5 85.8333,178.5 83.5,178.5C 83.2627,177.209 83.596,176.209 84.5,175.5C 91.3543,175.824 98.021,175.491 104.5,174.5 Z"/></g>
<g><path style="opacity:1" fill="#f2f2f2" d="M 129.5,174.5 C 130.609,174.557 131.609,174.89 132.5,175.5C 137.059,177.59 139.392,181.257 139.5,186.5C 138.12,202.702 129.453,208.869 113.5,205C 111.622,203.457 110.122,201.624 109,199.5C 105.974,182.829 112.807,174.495 129.5,174.5 Z"/></g>
<g><path style="opacity:1" fill="#ebecec" d="M 163.5,186.5 C 162.833,186.5 162.5,186.833 162.5,187.5C 158.187,192.636 156.187,198.636 156.5,205.5C 152.833,205.5 149.167,205.5 145.5,205.5C 145.841,201.291 146.508,197.125 147.5,193C 145.926,186.872 144.592,180.705 143.5,174.5C 147.182,174.335 150.848,174.501 154.5,175C 156.049,178.689 157.215,182.523 158,186.5C 160.366,182.964 162.533,179.297 164.5,175.5C 166.5,174.167 168.5,174.167 170.5,175.5C 167.906,179.026 165.573,182.692 163.5,186.5 Z"/></g>
<g><path style="opacity:1" fill="#f0f1f1" d="M 207.5,182.5 C 206.662,182.842 206.328,183.508 206.5,184.5C 204.012,186.388 201.012,187.055 197.5,186.5C 197.5,185.833 197.5,185.167 197.5,184.5C 197.5,182.5 197.5,180.5 197.5,178.5C 193.509,178.421 191.176,180.421 190.5,184.5C 190.5,185.167 190.5,185.833 190.5,186.5C 189.732,187.263 189.232,188.263 189,189.5C 188.333,193.5 188.333,197.5 189,201.5C 190.333,202.833 191.667,202.833 193,201.5C 194.341,198.978 195.174,196.311 195.5,193.5C 198.5,193.5 201.5,193.5 204.5,193.5C 205.552,199.601 203.219,203.434 197.5,205C 182.847,208.177 176.181,202.344 177.5,187.5C 178.338,187.158 178.672,186.492 178.5,185.5C 185.385,174.111 194.885,171.444 207,177.5C 207.494,179.134 207.66,180.801 207.5,182.5 Z"/></g>
<g><path style="opacity:1" fill="#eceded" d="M 214.5,182.5 C 215.401,181.71 216.068,180.71 216.5,179.5C 217.153,178.193 217.82,176.86 218.5,175.5C 222.445,174.509 226.445,174.176 230.5,174.5C 231.551,184.837 232.551,195.171 233.5,205.5C 229.5,205.5 225.5,205.5 221.5,205.5C 221.5,203.167 221.5,200.833 221.5,198.5C 215.448,196.895 211.448,198.895 209.5,204.5C 207.926,205.631 206.259,205.798 204.5,205C 208.249,197.67 211.582,190.17 214.5,182.5 Z"/></g>
<g><path style="opacity:1" fill="#eeeeef" d="M 241.5,174.5 C 247.509,174.334 253.509,174.501 259.5,175C 265.45,177.477 266.95,181.643 264,187.5C 262.286,189.043 260.786,190.71 259.5,192.5C 260.876,196.797 262.543,200.964 264.5,205C 260.789,205.825 257.122,205.659 253.5,204.5C 252.098,200.461 250.598,196.461 249,192.5C 247.686,196.754 246.853,201.087 246.5,205.5C 242.833,205.5 239.167,205.5 235.5,205.5C 237.5,195.168 239.5,184.835 241.5,174.5 Z"/></g>
<g><path style="opacity:1" fill="#f0f1f1" d="M 283.5,174.5 C 283.833,174.5 284.167,174.5 284.5,174.5C 287.667,174.4 290.667,175.067 293.5,176.5C 294.057,178.718 294.057,181.051 293.5,183.5C 290.833,183.5 288.167,183.5 285.5,183.5C 285.768,181.901 285.434,180.568 284.5,179.5C 281.361,177.806 279.361,178.806 278.5,182.5C 278.833,183.167 279.167,183.833 279.5,184.5C 284.142,185.651 288.309,187.651 292,190.5C 294.216,197.388 292.049,202.221 285.5,205C 279.833,205.667 274.167,205.667 268.5,205C 266.82,204.653 265.82,203.653 265.5,202C 266.233,200.234 266.567,198.401 266.5,196.5C 269.5,196.5 272.5,196.5 275.5,196.5C 275.141,200.987 276.974,202.654 281,201.5C 282.187,199.956 282.52,198.289 282,196.5C 277.684,194.726 273.684,192.393 270,189.5C 268.588,179.404 273.088,174.404 283.5,174.5 Z"/></g>
<g><path style="opacity:1" fill="#151d27" d="M 124.5,178.5 C 125.833,178.5 127.167,178.5 128.5,178.5C 128.637,186.651 126.804,194.318 123,201.5C 121.286,202.925 119.953,202.592 119,200.5C 118.019,192.424 119.852,185.091 124.5,178.5 Z"/></g>
<g><path style="opacity:1" fill="#1c1d21" d="M 197.5,184.5 C 195.167,184.5 192.833,184.5 190.5,184.5C 191.176,180.421 193.509,178.421 197.5,178.5C 197.5,180.5 197.5,182.5 197.5,184.5 Z"/></g>
<g><path style="opacity:1" fill="#1c232d" d="M 251.5,178.5 C 254.261,177.915 255.927,178.915 256.5,181.5C 256.226,186.1 253.893,188.767 249.5,189.5C 250.326,185.864 250.992,182.197 251.5,178.5 Z"/></g>
<g><path style="opacity:1" fill="#e6970d" d="M 216.5,179.5 C 216.068,180.71 215.401,181.71 214.5,182.5C 212.007,183.774 209.341,184.44 206.5,184.5C 206.328,183.508 206.662,182.842 207.5,182.5C 210.574,181.698 213.574,180.698 216.5,179.5 Z"/></g>
<g><path style="opacity:1" fill="#70757b" d="M 284.5,179.5 C 285.434,180.568 285.768,181.901 285.5,183.5C 288.167,183.5 290.833,183.5 293.5,183.5C 290.713,184.477 287.713,184.81 284.5,184.5C 284.5,182.833 284.5,181.167 284.5,179.5 Z"/></g>
<g><path style="opacity:1" fill="#ed9b05" d="M 190.5,184.5 C 192.833,184.5 195.167,184.5 197.5,184.5C 197.5,185.167 197.5,185.833 197.5,186.5C 195.167,186.5 192.833,186.5 190.5,186.5C 190.5,185.833 190.5,185.167 190.5,184.5 Z"/></g>
<g><path style="opacity:1" fill="#be7f0e" d="M 178.5,185.5 C 178.672,186.492 178.338,187.158 177.5,187.5C 172.5,187.5 167.5,187.5 162.5,187.5C 162.5,186.833 162.833,186.5 163.5,186.5C 168.438,185.608 173.438,185.274 178.5,185.5 Z"/></g>
<g><path style="opacity:1" fill="#1d252f" d="M 219.5,181.5 C 220.485,185.634 220.818,189.968 220.5,194.5C 218.396,194.799 216.396,194.466 214.5,193.5C 216.563,189.638 218.23,185.638 219.5,181.5 Z"/></g>
</svg>
